<svg width="18" height="18" viewBox="0 0 18 18" fill="none" xmlns="http://www.w3.org/2000/svg">
<path d="M17.7287 11.1771C16.5267 15.9986 11.6433 18.9329 6.82128 17.7306C2.00125 16.5285 -0.933006 11.6449 0.269537 6.82378C1.47102 2.00177 6.3544 -0.932704 11.175 0.269311C15.9966 1.47133 18.9307 6.35553 17.7286 11.1772L17.7287 11.1771H17.7287Z" fill="#295ADA"></path>
<path d="M9 4L8.15344 4.47477L5.84656 5.77523L5 6.25V10.75L5.84656 11.2248L8.1746 12.5252L9.02116 13L9.86772 12.5252L12.1534 11.2248L13 10.75V6.25L12.1534 5.77523L9.84656 4.47477L9 4ZM6.69312 9.80046V7.19954L9 5.89908L11.3069 7.19954V9.80046L9 11.1009L6.69312 9.80046Z" fill="white"></path>
</svg>