<svg width="18" height="18" viewBox="0 0 18 18" fill="none" xmlns="http://www.w3.org/2000/svg">
<path d="M17.7307 11.1771C16.5286 15.9986 11.6446 18.9329 6.82205 17.7306C2.00148 16.5285 -0.933111 11.6449 0.269567 6.82378C1.47119 2.00177 6.35511 -0.932704 11.1762 0.269311C15.9985 1.47133 18.9329 6.35553 17.7306 11.1772L17.7307 11.1771H17.7307Z" fill="#8247E5"></path>
<path d="M11.5718 7.75074C11.389 7.64392 11.154 7.64392 10.9452 7.75074L9.48303 8.63205L8.49086 9.19288L7.05483 10.0742C6.87206 10.181 6.63708 10.181 6.4282 10.0742L5.30548 9.37982C5.12272 9.273 4.99217 9.05935 4.99217 8.81899V7.48368C4.99217 7.27003 5.09661 7.05638 5.30548 6.92285L6.4282 6.25519C6.61097 6.14837 6.84595 6.14837 7.05483 6.25519L8.17755 6.94956C8.36031 7.05638 8.49086 7.27003 8.49086 7.51039V8.39169L9.48303 7.80415V6.89614C9.48303 6.68249 9.37859 6.46884 9.16971 6.33531L7.08094 5.08012C6.89817 4.97329 6.66319 4.97329 6.45431 5.08012L4.31332 6.36202C4.10444 6.46884 4 6.68249 4 6.89614V9.40653C4 9.62018 4.10444 9.83383 4.31332 9.96736L6.4282 11.2226C6.61097 11.3294 6.84595 11.3294 7.05483 11.2226L8.49086 10.368L9.48303 9.78042L10.9191 8.92582C11.1018 8.81899 11.3368 8.81899 11.5457 8.92582L12.6684 9.59347C12.8512 9.7003 12.9817 9.91395 12.9817 10.1543V11.4896C12.9817 11.7033 12.8773 11.9169 12.6684 12.0504L11.5718 12.7181C11.389 12.8249 11.154 12.8249 10.9452 12.7181L9.82245 12.0504C9.63969 11.9436 9.50914 11.73 9.50914 11.4896V10.635L8.51697 11.2226V12.1039C8.51697 12.3175 8.62141 12.5312 8.83029 12.6647L10.9452 13.9199C11.1279 14.0267 11.3629 14.0267 11.5718 13.9199L13.6867 12.6647C13.8695 12.5579 14 12.3442 14 12.1039V9.56677C14 9.35312 13.8956 9.13947 13.6867 9.00594L11.5718 7.75074Z" fill="white"></path>
</svg>