<svg width="18" height="18" viewBox="0 0 18 18" fill="none" xmlns="http://www.w3.org/2000/svg">
<path d="M17.7307 11.1771C16.5286 15.9986 11.6446 18.9329 6.82205 17.7306C2.00148 16.5285 -0.933111 11.6449 0.269567 6.82378C1.47119 2.00177 6.35511 -0.932704 11.1762 0.269311C15.9985 1.47133 18.9329 6.35553 17.7306 11.1772L17.7307 11.1771H17.7307Z" fill="#1181E7"></path>
<g clip-path="url(#clip0_27_564)">
<path d="M8.99897 4L8.93188 4.22789V10.84L8.99897 10.907L12.0682 9.09273L8.99897 4Z" fill="#D6D6D6"></path>
<path d="M8.99899 4L5.92969 9.09273L8.99899 10.907V7.69762V4Z" fill="white"></path>
<path d="M8.99899 11.4881L8.96118 11.5342V13.8896L8.99899 13.9999L12.0701 9.6748L8.99899 11.4881Z" fill="#D6D6D6"></path>
<path d="M8.99899 13.9999V11.4881L5.92969 9.6748L8.99899 13.9999Z" fill="white"></path>
<path d="M8.99902 10.907L12.0682 9.09274L8.99902 7.69763V10.907Z" fill="#F3F3F3"></path>
<path d="M5.92969 9.09274L8.99899 10.907V7.69763L5.92969 9.09274Z" fill="#E2E2E2"></path>
</g>
<defs>
<clipPath id="clip0_27_564">
<rect width="10" height="10" fill="white" transform="translate(4 4)"></rect>
</clipPath>
</defs>
</svg>