<svg width="18" height="18" viewBox="0 0 18 18" fill="none" xmlns="http://www.w3.org/2000/svg">
<path d="M17.7287 11.1771C16.5267 15.9986 11.6433 18.9329 6.82128 17.7306C2.00125 16.5285 -0.933006 11.6449 0.269537 6.82378C1.47102 2.00177 6.3544 -0.932704 11.175 0.269311C15.9966 1.47133 18.9307 6.35553 17.7286 11.1772L17.7287 11.1771H17.7287Z" fill="#F7931A"></path>
<path d="M13.1113 8.32768C13.2804 7.19652 12.4193 6.58848 11.2416 6.18285L11.6237 4.65059L10.6909 4.41817L10.319 5.91009C10.0738 5.84893 9.82201 5.79131 9.57173 5.73418L9.94632 4.23242L9.01417 4L8.63193 5.53176C8.42902 5.48556 8.22972 5.4399 8.03636 5.39179L8.03744 5.38697L6.75117 5.06577L6.50305 6.06199C6.50305 6.06199 7.19507 6.22062 7.18048 6.23038C7.55819 6.32465 7.62649 6.57468 7.61515 6.77286L7.17998 8.51847C7.20599 8.52507 7.23973 8.53463 7.27695 8.54959C7.24584 8.54186 7.21272 8.53343 7.17836 8.5252L6.56841 10.9705C6.52225 11.0853 6.40509 11.2575 6.14101 11.1921C6.15036 11.2057 5.46309 11.0229 5.46309 11.0229L5 12.0906L6.2138 12.3932C6.43961 12.4498 6.66089 12.5091 6.87881 12.5648L6.49283 14.1146L7.42449 14.347L7.80672 12.8137C8.06124 12.8828 8.30824 12.9465 8.55005 13.0066L8.1691 14.5327L9.10188 14.7651L9.48781 13.2182C11.0783 13.5192 12.2743 13.3979 12.7776 11.9592C13.1833 10.801 12.7574 10.1329 11.9207 9.69725C12.5301 9.55669 12.9892 9.15584 13.1116 8.32781L13.1113 8.3276L13.1113 8.32768ZM10.9802 11.316C10.6919 12.4743 8.74179 11.8481 8.10952 11.6911L8.62171 9.63788C9.25394 9.79571 11.2814 10.1081 10.9802 11.316H10.9802ZM11.2686 8.3109C11.0057 9.36445 9.38257 8.8292 8.85604 8.69795L9.32041 6.83576C9.84694 6.96701 11.5426 7.21197 11.2687 8.3109H11.2686Z" fill="white"></path>
</svg>